<?xml version="1.0" encoding="UTF-8"?>
<svg xmlns="http://www.w3.org/2000/svg" xmlns:xlink="http://www.w3.org/1999/xlink" width="24px" height="24px" viewBox="0 0 24 24" version="1.1">
<g id="surface1">
<path style=" stroke:none;fill-rule:nonzero;fill:rgb(0%,0%,0%);fill-opacity:1;" d="M 19.554688 3 L 4.539062 3 C 3.71875 3 3 3.589844 3 4.402344 L 3 19.453125 C 3 20.269531 3.71875 20.996094 4.539062 20.996094 L 19.550781 20.996094 C 20.375 20.996094 20.996094 20.265625 20.996094 19.453125 L 20.996094 4.402344 C 21 3.589844 20.375 3 19.554688 3 Z M 8.578125 18 L 6 18 L 6 9.984375 L 8.578125 9.984375 Z M 7.378906 8.765625 L 7.359375 8.765625 C 6.535156 8.765625 6 8.152344 6 7.382812 C 6 6.601562 6.546875 6 7.390625 6 C 8.234375 6 8.75 6.59375 8.769531 7.382812 C 8.769531 8.152344 8.234375 8.765625 7.378906 8.765625 Z M 18 18 L 15.421875 18 L 15.421875 13.617188 C 15.421875 12.566406 15.046875 11.851562 14.113281 11.851562 C 13.402344 11.851562 12.980469 12.332031 12.792969 12.800781 C 12.722656 12.96875 12.703125 13.199219 12.703125 13.433594 L 12.703125 18 L 10.125 18 L 10.125 9.984375 L 12.703125 9.984375 L 12.703125 11.101562 C 13.078125 10.566406 13.664062 9.796875 15.027344 9.796875 C 16.71875 9.796875 18 10.914062 18 13.316406 Z M 18 18 "/>
</g>
</svg>
